onset_sec,duration_sec,pitch,velocity,id
2.31125,1.30875,72,97,0
2.955,0.075,48,98,1
3.53875,0.0825,64,85,2
3.54,0.175,58,92,3
3.55625,0.07375,55,74,4
3.72125,0.3625,73,98,5
3.90125,0.795,72,112,6
3.91,0.14375,58,95,7
3.925,0.0525,55,92,8
3.93,0.0475,64,76,9
4.27,0.0825,48,111,10
4.6725,0.1125,60,106,11
4.67625,0.0975,65,106,12
4.695,0.11625,56,103,13
4.82,0.32125,73,115,14
5.005,0.665,72,118,15
5.01125,0.0425,65,101,16
5.0125,0.1,56,104,17
5.0225,0.04625,60,101,18
5.35875,0.07375,48,116,19
5.7225,0.1,64,114,20
5.7425,0.155,58,109,21
5.74375,0.15,55,106,22
5.88625,0.25,73,118,23
6.07875,0.0725,72,121,24
6.0825,0.035,64,113,25
6.08375,0.07,55,110,26
6.08875,0.10125,58,113,27
6.42875,0.23625,48,120,28
6.535,0.14875,72,118,29
6.635,0.12375,73,119,30
6.735,0.1425,75,118,31
6.82625,0.44125,73,118,32
7.0875,0.16,65,111,33
7.10375,0.17875,60,107,34
7.10875,0.195,56,107,35
7.54,0.40625,72,116,36
7.55625,0.0775,65,99,37
7.565,0.0875,60,99,38
7.57375,0.10375,56,99,39
8.17125,0.14625,48,103,40
8.71625,0.14875,64,96,41
8.7225,0.155,55,92,42
8.7425,0.105,58,89,43
8.87375,0.305,73,105,44
9.08,0.12625,72,109,45
9.08625,0.04625,64,92,46
9.09375,0.05625,55,93,47
9.11125,0.0575,58,87,48
9.57,0.135,48,92,49
9.58125,0.47875,72,106,50
10.1025,0.14875,60,87,51
10.105,0.145,63,79,52
10.12375,0.0925,56,86,53
10.27125,0.2025,73,104,54
10.475,0.14875,72,107,55
10.49625,0.04875,60,80,56
10.4975,0.0575,63,69,57
10.50875,0.045,56,93,58
10.9475,0.13625,39,91,59
10.98625,0.415,72,99,60
11.55,0.135,61,84,61
11.55875,0.1225,51,84,62
11.56125,0.22375,55,85,63
11.72625,0.10625,70,102,64
11.94875,0.12,55,81,65
11.9725,0.15375,51,89,66
11.9725,0.10875,61,73,67
11.97625,0.28,70,99,68
12.54625,0.29625,60,84,69
12.5475,0.33375,56,80,70
12.55625,0.25125,68,83,71
13.84875,1.08125,72,94,72
14.4525,0.09625,48,91,73
15.03375,0.15,64,88,74
15.05625,0.11125,58,85,75
15.06375,0.08375,55,69,76
15.2,0.1575,73,101,77
15.3825,0.05125,64,89,78
15.39375,0.74125,72,108,79
15.39625,0.09,58,87,80
15.41875,0.0475,55,85,81
15.7575,0.08625,48,113,82
16.17,0.11125,65,106,83
16.1875,0.12875,60,101,84
16.195,0.14375,56,102,85
16.30125,0.22,73,118,86
16.475,0.7625,72,121,87
16.4775,0.0775,60,105,88
16.4825,0.0425,65,105,89
16.49875,0.105,56,109,90
16.80375,0.1075,48,120,91
17.18375,0.04,64,118,92
17.205,0.15625,58,113,93
17.215,0.10375,55,108,94
17.33375,0.2125,73,119,95
17.5075,0.07125,72,122,96
17.5125,0.06375,64,120,97
17.52375,0.13,58,116,98
17.53,0.0875,55,109,99
17.855,0.26875,48,120,100
17.9325,0.095,72,117,101
17.98875,0.11125,73,115,102
18.08125,0.13,75,117,103
18.1625,0.9575,73,118,104
18.49125,0.1625,65,116,105
18.51125,0.1175,60,108,106
18.5125,0.17,56,110,107
18.92125,0.7875,72,116,108
18.9425,0.09125,60,100,109
18.94375,0.0975,65,91,110
18.955,0.13,56,101,111
19.37125,0.125,48,111,112
19.8575,0.10625,64,105,113
19.87,0.15125,55,98,114
19.875,0.15,58,103,115
20.02,0.23,73,109,116
20.1975,0.1275,72,112,117
20.20125,0.10875,58,104,118
20.20375,0.03625,64,93,119
20.205,0.0525,55,102,120
20.69375,0.14,48,105,121
20.7025,0.7125,72,105,122
21.25125,0.18375,63,90,123
21.25375,0.1775,60,98,124
21.26125,0.175,56,95,125
21.42375,0.225,73,105,126
21.62375,0.125,72,104,127
21.63,0.09375,56,97,128
21.6425,0.05625,63,63,129
21.645,0.04,60,93,130
22.04625,0.1275,39,92,131
22.09,0.46625,72,103,132
22.63375,0.17125,51,90,133
22.64,0.155,61,77,134
22.6525,0.23375,55,81,135
22.80125,0.17625,70,99,136
23.08625,0.12,55,87,137
23.09375,0.27125,70,99,138
23.10375,0.1475,61,88,139
23.1175,0.175,51,89,140
23.77,0.4025,68,78,141
23.77875,0.30875,60,87,142
23.78875,0.35375,56,75,143
25.07625,0.2675,72,87,144
25.1,0.2925,68,66,145
25.705,0.12375,36,86,146
25.78375,0.74,72,99,147
25.79375,0.68875,68,84,148
26.46625,0.20375,52,90,149
26.47375,0.17125,58,83,150
26.50625,0.105,48,44,151
26.66875,0.0675,67,89,152
26.88875,0.06125,58,82,153
26.89625,0.09875,67,105,154
26.8975,0.105,72,108,155
26.9025,0.06,48,95,156
26.90375,0.0775,52,81,157
27.295,0.09375,41,100,158
27.34875,0.55375,72,110,159
27.355,0.53,67,106,160
27.825,0.09375,65,102,161
27.83125,0.14875,48,93,162
27.8475,0.075,56,66,163
27.8525,0.13625,53,86,164
28.0875,0.17125,65,106,165
28.1875,0.10375,72,116,166
28.195,0.11375,68,113,167
28.22125,0.05375,48,104,168
28.57125,0.11375,36,115,169
28.6625,0.64,72,117,170
28.665,0.6875,68,115,171
28.7975,0.07125,65,1,172
29.10125,0.1975,52,103,173
29.10125,0.14,58,103,174
29.11,0.215,48,105,175
29.245,0.09,67,115,176
29.43,0.04625,52,108,177
29.43,0.08375,67,113,178
29.43125,0.04375,58,98,179
29.435,0.09,72,117,180
29.44375,0.05625,48,105,181
29.77875,0.115,41,118,182
29.845,0.4275,72,116,183
29.85625,0.43125,67,115,184
30.3125,0.15625,65,119,185
30.3275,0.04,56,110,186
30.32875,0.06,48,112,187
30.3375,0.0425,53,110,188
30.8075,0.1775,77,120,189
30.82,0.17875,72,116,190
30.82125,0.23625,65,114,191
30.83375,0.23625,68,113,192
30.84125,0.24125,41,121,193
30.845,0.34625,53,120,194
31.385,0.25125,55,120,195
31.39125,0.45125,75,120,196
31.3925,0.19625,43,118,197
31.39375,0.51375,63,115,198
31.40125,0.48,67,115,199
31.405,0.45,72,114,200
31.9025,0.16875,55,120,201
32.06625,0.115,73,118,202
32.075,0.125,63,110,203
32.08125,0.06125,67,111,204
32.26625,0.12,51,113,205
32.2725,0.155,73,118,206
32.28375,0.0975,67,115,207
32.28875,0.115,63,108,208
32.7075,0.54,73,114,209
32.72375,0.60125,44,113,210
32.72875,0.59875,68,107,211
32.73,0.57625,63,102,212
33.19,0.13125,72,112,213
33.20875,0.11,51,102,214
33.62125,0.1775,72,107,215
33.6375,0.18125,68,100,216
33.6425,0.2375,51,90,217
33.6425,0.18125,63,95,218
34.16375,0.31375,72,107,219
34.19,0.695,39,97,220
34.195,0.39125,67,94,221
34.2,0.3225,63,92,222
34.7075,0.18375,51,94,223
34.89125,0.1075,70,97,224
34.90125,0.06875,67,94,225
34.9175,0.06125,61,77,226
35.14125,0.51125,70,96,227
35.15125,0.10125,51,91,228
35.15125,0.215,61,82,229
35.15625,0.11625,67,91,230
35.74625,0.52,68,82,231
35.7575,0.42625,51,71,232
35.7575,0.35,60,84,233
35.7825,0.4425,44,69,234
37.13625,0.24,72,86,235
37.1525,0.23125,68,79,236
37.595,0.10375,36,93,237
37.71125,0.78,72,107,238
37.7225,0.575,68,99,239
38.25875,0.20375,52,93,240
38.26,0.19625,48,85,241
38.27375,0.1075,58,76,242
38.435,0.05625,67,98,243
38.62,0.055,48,100,244
38.625,0.06125,52,100,245
38.63,0.08625,67,107,246
38.635,0.06875,72,108,247
38.6475,0.0775,58,57,248
38.985,0.0675,41,106,249
39.0225,0.54375,72,114,250
39.04,0.4675,67,111,251
39.4575,0.08125,65,116,252
39.465,0.0725,56,89,253
39.4725,0.07875,48,96,254
39.4725,0.12875,53,101,255
39.6925,0.1575,65,114,256
39.80125,0.1125,72,120,257
39.80625,0.1325,68,120,258
39.845,0.07875,48,103,259
39.85125,0.0575,56,67,260
39.85375,0.07,53,95,261
40.2275,0.1175,36,110,262
40.2725,0.0775,38,81,263
40.29,0.47125,72,119,264
40.3,0.60125,68,117,265
40.73375,0.17,58,107,266
40.74,0.33,52,106,267
40.74375,0.1075,48,108,268
40.87,0.0825,67,116,269
41.06375,0.105,72,118,270
41.06875,0.08,67,118,271
41.07,0.06875,52,108,272
41.07875,0.065,58,103,273
41.08875,0.05875,48,102,274
41.445,0.125,41,117,275
41.4925,0.47375,72,119,276
41.50375,0.46375,67,118,277
41.9775,0.16375,65,122,278
41.995,0.055,56,115,279
42.0025,0.085,48,113,280
42.01125,0.06,53,110,281
42.47,0.185,77,122,282
42.48125,0.235,65,118,283
42.4825,0.21625,72,118,284
42.48625,0.25875,68,118,285
42.50625,0.43625,53,121,286
42.50875,0.32125,41,121,287
43.075,0.3875,75,122,288
43.07625,0.295,55,120,289
43.08625,0.235,43,119,290
43.09,0.35,63,117,291
43.09125,0.40375,73,116,292
43.09375,0.38875,67,114,293
43.57625,0.17875,55,118,294
43.745,0.11375,73,119,295
43.76,0.0575,63,113,296
43.76,0.06,67,112,297
43.965,0.1825,51,118,298
43.9725,0.19,63,112,299
43.97375,0.1675,73,121,300
43.97875,0.10875,67,114,301
44.43125,0.7025,44,113,302
44.45,0.6075,73,117,303
44.465,0.6475,63,105,304
44.46875,0.60875,68,110,305
44.9625,0.135,72,114,306
44.9825,0.115,51,109,307
45.40125,0.2125,72,115,308
45.41875,0.21375,68,108,309
45.42125,0.165,63,104,310
45.4325,0.1825,51,97,311
46.03125,0.3175,72,103,312
46.06125,0.36625,63,88,313
46.0625,0.44375,39,90,314
46.0625,0.37875,67,93,315
46.585,0.13625,51,85,316
46.79875,0.11625,70,93,317
46.80125,0.075,67,88,318
46.85,0.0725,61,32,319
47.12625,0.82125,70,84,320
47.1325,0.14375,61,73,321
47.13375,0.17,51,84,322
47.13375,0.175,67,84,323
47.865,0.67375,60,74,324
47.865,0.74125,68,84,325
47.87625,0.59375,51,72,326
47.8825,0.60625,44,73,327
